<svg xmlns="http://www.w3.org/2000/svg" viewBox="0 0 339.37 339.37"><g id="Livello_2" data-name="Livello 2"><g id="Livello_3" data-name="Livello 3"><path d="M169.69,0A169.69,169.69,0,1,0,339.37,169.69,169.69,169.69,0,0,0,169.69,0Zm0,320.57A150.89,150.89,0,1,1,320.57,169.69,150.88,150.88,0,0,1,169.69,320.57Z" style="fill:#e3f2fd"/><path d="M169.69,35.94C95,35.94,34.36,95.82,34.36,169.69S95,303.43,169.69,303.43,305,243.55,305,169.69,244.43,35.94,169.69,35.94Zm0,252c-66.06,0-119.61-52.92-119.61-118.2S103.63,51.48,169.69,51.48s119.6,52.92,119.6,118.21S235.74,287.89,169.69,287.89Z" style="fill:#e3f2fd"/><path d="M169.69,102.44c-37.58,0-68,30.11-68,67.25s30.47,67.24,68.05,67.24,68-30.1,68-67.24S207.27,102.44,169.69,102.44Zm0,126.68c-33.22,0-60.14-26.61-60.14-59.43s26.92-59.44,60.14-59.44,60.13,26.61,60.13,59.44S202.9,229.12,169.69,229.12Z" style="fill:#e3f2fd"/><path d="M169.69,126.36c-24.21,0-43.84,19.4-43.84,43.33S145.48,213,169.69,213s43.83-19.4,43.83-43.32S193.89,126.36,169.69,126.36Zm0,81.61a38.29,38.29,0,1,1,38.74-38.28A38.51,38.51,0,0,1,169.69,208Z" style="fill:#e3f2fd"/><path d="M169.69,156.08a13.61,13.61,0,1,0,13.76,13.61A13.69,13.69,0,0,0,169.69,156.08Zm0,25.63a12,12,0,1,1,12.16-12A12.1,12.1,0,0,1,169.69,181.71Z" style="fill:#e3f2fd"/></g></g></svg>