<svg xmlns="http://www.w3.org/2000/svg" viewBox="0 0 1899.06 310.25"><g id="Livello_2" data-name="Livello 2"><g id="Livello_3" data-name="Livello 3"><line x1="2" y1="135.3" x2="2" y2="174.94" style="fill:none;stroke:#c2185b;stroke-miterlimit:10;stroke-width:4px"/><line x1="21.82" y1="80.7" x2="21.82" y2="229.55" style="fill:none;stroke:#c2185b;stroke-miterlimit:10;stroke-width:4px"/><line x1="44.47" y1="98.49" x2="44.47" y2="211.75" style="fill:none;stroke:#c2185b;stroke-miterlimit:10;stroke-width:4px"/><line x1="64.7" y1="140.76" x2="64.7" y2="169.48" style="fill:none;stroke:#c2185b;stroke-miterlimit:10;stroke-width:4px"/><line x1="86.54" y1="148.65" x2="86.54" y2="161.6" style="fill:none;stroke:#c2185b;stroke-miterlimit:10;stroke-width:4px"/><line x1="106.76" y1="89.8" x2="106.76" y2="220.45" style="fill:none;stroke:#c2185b;stroke-miterlimit:10;stroke-width:4px"/><line x1="128.2" y1="107.8" x2="128.2" y2="202.45" style="fill:none;stroke:#c2185b;stroke-miterlimit:10;stroke-width:4px"/><line x1="150.04" y1="131.87" x2="150.04" y2="178.38" style="fill:none;stroke:#c2185b;stroke-miterlimit:10;stroke-width:4px"/><line x1="170.67" y1="96.67" x2="170.67" y2="213.57" style="fill:none;stroke:#c2185b;stroke-miterlimit:10;stroke-width:4px"/><line x1="192.11" y1="124.79" x2="192.11" y2="185.46" style="fill:none;stroke:#c2185b;stroke-miterlimit:10;stroke-width:4px"/><line x1="211.53" y1="80.49" x2="211.53" y2="229.75" style="fill:none;stroke:#c2185b;stroke-miterlimit:10;stroke-width:4px"/><line x1="232.97" y1="65.12" x2="232.97" y2="245.12" style="fill:none;stroke:#c2185b;stroke-miterlimit:10;stroke-width:4px"/><line x1="253.6" y1="81.91" x2="253.6" y2="228.34" style="fill:none;stroke:#c2185b;stroke-miterlimit:10;stroke-width:4px"/><line x1="276.65" y1="117.1" x2="276.65" y2="193.15" style="fill:none;stroke:#c2185b;stroke-miterlimit:10;stroke-width:4px"/><line x1="296.47" y1="99.3" x2="296.47" y2="210.94" style="fill:none;stroke:#c2185b;stroke-miterlimit:10;stroke-width:4px"/><line x1="315.89" y1="130.04" x2="315.89" y2="180.2" style="fill:none;stroke:#c2185b;stroke-miterlimit:10;stroke-width:4px"/><line x1="338.13" y1="144" x2="338.13" y2="166.25" style="fill:none;stroke:#c2185b;stroke-miterlimit:10;stroke-width:4px"/><line x1="358.76" y1="151.69" x2="358.76" y2="158.56" style="fill:none;stroke:#c2185b;stroke-miterlimit:10;stroke-width:4px"/><line x1="381.42" y1="112.04" x2="381.42" y2="198.2" style="fill:none;stroke:#c2185b;stroke-miterlimit:10;stroke-width:4px"/><line x1="402.04" y1="47.33" x2="402.04" y2="262.92" style="fill:none;stroke:#c2185b;stroke-miterlimit:10;stroke-width:4px"/><line x1="423.89" x2="423.89" y2="310.25" style="fill:none;stroke:#c2185b;stroke-miterlimit:10;stroke-width:4px"/><line x1="442.9" y1="33.57" x2="442.9" y2="276.67" style="fill:none;stroke:#c2185b;stroke-miterlimit:10;stroke-width:4px"/><line x1="464.34" y1="60.67" x2="464.34" y2="249.57" style="fill:none;stroke:#c2185b;stroke-miterlimit:10;stroke-width:4px"/><line x1="487.8" y1="101.73" x2="487.8" y2="208.52" style="fill:none;stroke:#c2185b;stroke-miterlimit:10;stroke-width:4px"/><line x1="507.21" y1="76.25" x2="507.21" y2="234" style="fill:none;stroke:#c2185b;stroke-miterlimit:10;stroke-width:4px"/><line x1="526.22" y1="118.72" x2="526.22" y2="191.53" style="fill:none;stroke:#c2185b;stroke-miterlimit:10;stroke-width:4px"/><line x1="549.28" y1="137.53" x2="549.28" y2="172.72" style="fill:none;stroke:#c2185b;stroke-miterlimit:10;stroke-width:4px"/><line x1="572.74" y1="73.01" x2="572.74" y2="237.24" style="fill:none;stroke:#c2185b;stroke-miterlimit:10;stroke-width:4px"/><line x1="590.54" y1="112.04" x2="590.54" y2="198.2" style="fill:none;stroke:#c2185b;stroke-miterlimit:10;stroke-width:4px"/><line x1="613.6" y1="128.02" x2="613.6" y2="182.22" style="fill:none;stroke:#c2185b;stroke-miterlimit:10;stroke-width:4px"/><line x1="633.42" y1="144.4" x2="633.42" y2="165.84" style="fill:none;stroke:#c2185b;stroke-miterlimit:10;stroke-width:4px"/><line x1="1289.51" y1="143.72" x2="1289.51" y2="176.38" style="fill:none;stroke:#c2185b;stroke-miterlimit:10;stroke-width:4px"/><line x1="1309.33" y1="99.3" x2="1309.33" y2="210.94" style="fill:none;stroke:#c2185b;stroke-miterlimit:10;stroke-width:4px"/><line x1="1328.74" y1="130.04" x2="1328.74" y2="180.2" style="fill:none;stroke:#c2185b;stroke-miterlimit:10;stroke-width:4px"/><line x1="1350.99" y1="144" x2="1350.99" y2="166.25" style="fill:none;stroke:#c2185b;stroke-miterlimit:10;stroke-width:4px"/><line x1="1371.62" y1="151.69" x2="1371.62" y2="158.56" style="fill:none;stroke:#c2185b;stroke-miterlimit:10;stroke-width:4px"/><line x1="1394.27" y1="112.04" x2="1394.27" y2="198.2" style="fill:none;stroke:#c2185b;stroke-miterlimit:10;stroke-width:4px"/><line x1="1414.9" y1="47.33" x2="1414.9" y2="262.92" style="fill:none;stroke:#c2185b;stroke-miterlimit:10;stroke-width:4px"/><line x1="1436.74" x2="1436.74" y2="310.25" style="fill:none;stroke:#c2185b;stroke-miterlimit:10;stroke-width:4px"/><line x1="1455.75" y1="33.57" x2="1455.75" y2="276.67" style="fill:none;stroke:#c2185b;stroke-miterlimit:10;stroke-width:4px"/><line x1="1477.19" y1="60.67" x2="1477.19" y2="249.57" style="fill:none;stroke:#c2185b;stroke-miterlimit:10;stroke-width:4px"/><line x1="1500.65" y1="101.73" x2="1500.65" y2="208.52" style="fill:none;stroke:#c2185b;stroke-miterlimit:10;stroke-width:4px"/><line x1="1520.07" y1="76.25" x2="1520.07" y2="234" style="fill:none;stroke:#c2185b;stroke-miterlimit:10;stroke-width:4px"/><line x1="1539.08" y1="118.72" x2="1539.08" y2="191.53" style="fill:none;stroke:#c2185b;stroke-miterlimit:10;stroke-width:4px"/><line x1="1562.13" y1="137.53" x2="1562.13" y2="172.72" style="fill:none;stroke:#c2185b;stroke-miterlimit:10;stroke-width:4px"/><line x1="1585.6" y1="73.01" x2="1585.6" y2="237.24" style="fill:none;stroke:#c2185b;stroke-miterlimit:10;stroke-width:4px"/><line x1="1603.39" y1="112.04" x2="1603.39" y2="198.2" style="fill:none;stroke:#c2185b;stroke-miterlimit:10;stroke-width:4px"/><line x1="1626.45" y1="128.02" x2="1626.45" y2="182.22" style="fill:none;stroke:#c2185b;stroke-miterlimit:10;stroke-width:4px"/><line x1="1646.27" y1="144.4" x2="1646.27" y2="165.84" style="fill:none;stroke:#c2185b;stroke-miterlimit:10;stroke-width:4px"/><line x1="1668.11" y1="72.81" x2="1668.11" y2="237.44" style="fill:none;stroke:#c2185b;stroke-miterlimit:10;stroke-width:4px"/><line x1="1687.53" y1="104.16" x2="1687.53" y2="206.09" style="fill:none;stroke:#c2185b;stroke-miterlimit:10;stroke-width:4px"/><line x1="1708.16" y1="31.75" x2="1708.16" y2="278.49" style="fill:none;stroke:#c2185b;stroke-miterlimit:10;stroke-width:4px"/><line x1="1731.21" y1="60.07" x2="1731.21" y2="250.18" style="fill:none;stroke:#c2185b;stroke-miterlimit:10;stroke-width:4px"/><line x1="1751.84" y1="98.09" x2="1751.84" y2="212.16" style="fill:none;stroke:#c2185b;stroke-miterlimit:10;stroke-width:4px"/><line x1="1772.07" y1="138.44" x2="1772.07" y2="171.81" style="fill:none;stroke:#c2185b;stroke-miterlimit:10;stroke-width:4px"/><line x1="1794.72" y1="147.64" x2="1794.72" y2="162.61" style="fill:none;stroke:#c2185b;stroke-miterlimit:10;stroke-width:4px"/><line x1="1812.92" y1="107.39" x2="1812.92" y2="202.85" style="fill:none;stroke:#c2185b;stroke-miterlimit:10;stroke-width:4px"/><line x1="1835.98" y1="115.89" x2="1835.98" y2="194.36" style="fill:none;stroke:#c2185b;stroke-miterlimit:10;stroke-width:4px"/><line x1="1860.65" y1="137.53" x2="1860.65" y2="172.72" style="fill:none;stroke:#c2185b;stroke-miterlimit:10;stroke-width:4px"/><line x1="1877.64" y1="143.39" x2="1877.64" y2="166.85" style="fill:none;stroke:#c2185b;stroke-miterlimit:10;stroke-width:4px"/><line x1="1897.06" y1="95.26" x2="1897.06" y2="214.99" style="fill:none;stroke:#c2185b;stroke-miterlimit:10;stroke-width:4px"/></g></g></svg>