<svg xmlns="http://www.w3.org/2000/svg" viewBox="0 0 1899.06 310.25"><g id="Livello_2" data-name="Livello 2"><g id="Livello_1-2" data-name="Livello 1"><path d="M694.08,107.06h16.48l20.6,62,20.78-62H768.4l14.91,88.84H767l-9.52-56.11L738.55,195.9h-14.9l-18.71-56.11-9.75,56.11H678.7Z" style="fill:#fff"/><path d="M794.9,130.19h16.67v31.65q0,9.24,1.27,12.83a11.2,11.2,0,0,0,4.09,5.59,11.69,11.69,0,0,0,6.93,2,12.06,12.06,0,0,0,7-2,11.51,11.51,0,0,0,4.27-5.77q1-2.84,1-12.14V130.19h16.49V158q0,17.22-2.72,23.56a25.6,25.6,0,0,1-9.78,11.86q-6.46,4.14-16.43,4.14-10.82,0-17.48-4.83a25.57,25.57,0,0,1-9.4-13.47q-1.92-6-1.93-21.74Z" style="fill:#fff"/><path d="M909.41,139.37,899.2,149.58q-6.21-6.17-11.29-6.16a7.09,7.09,0,0,0-4.35,1.18,3.52,3.52,0,0,0-1.57,2.92,3.57,3.57,0,0,0,1,2.45,18.35,18.35,0,0,0,4.92,3.05l6,3q9.54,4.71,13.11,9.6a20,20,0,0,1-2.87,26.09q-6.44,5.86-17.25,5.86-14.37,0-23-11.23l10.15-11.05a23.55,23.55,0,0,0,6.79,5.46,15.09,15.09,0,0,0,6.92,2.09,8.27,8.27,0,0,0,5.25-1.57,4.57,4.57,0,0,0,2-3.63q0-3.79-7.19-7.43l-5.56-2.78q-15.95-8-15.94-20.11a17.42,17.42,0,0,1,6-13.31q6-5.53,15.37-5.53a26.67,26.67,0,0,1,21.62,10.87Z" style="fill:#fff"/><path d="M930,103.13a10,10,0,0,1,7.43,3.15,10.41,10.41,0,0,1,3.1,7.6,10.29,10.29,0,0,1-3.07,7.52,9.91,9.91,0,0,1-7.34,3.11,10.09,10.09,0,0,1-7.5-3.17,10.59,10.59,0,0,1-3.1-7.7A10.5,10.5,0,0,1,930,103.13Zm-8.25,27.06h16.49V195.9H921.79Z" style="fill:#fff"/><path d="M1017.58,143.48,1003.85,151a23.3,23.3,0,0,0-7.65-5.62,22.9,22.9,0,0,0-8.85-1.57q-9.26,0-15,5.52a18.79,18.79,0,0,0-5.71,14.14,18.17,18.17,0,0,0,5.5,13.69q5.51,5.3,14.45,5.3,11.07,0,17.23-7.55l13,8.91q-10.56,13.74-29.83,13.74-17.34,0-27.15-10.27a34.15,34.15,0,0,1,8.27-54.23,39.76,39.76,0,0,1,19.12-4.59,38.7,38.7,0,0,1,17.57,3.9A33.26,33.26,0,0,1,1017.58,143.48Z" style="fill:#fff"/><path d="M1080.93,130.19h16.49V195.9h-16.49V189a32.32,32.32,0,0,1-9.68,6.61,27.1,27.1,0,0,1-10.53,2q-12.72,0-22-9.87t-9.29-24.55q0-15.22,9-24.95a28.67,28.67,0,0,1,21.84-9.72,27.93,27.93,0,0,1,11.1,2.23,30.21,30.21,0,0,1,9.59,6.71Zm-17.33,13.53a16.66,16.66,0,0,0-12.7,5.4q-5.06,5.41-5.06,13.87t5.15,14a16.68,16.68,0,0,0,12.67,5.49,17,17,0,0,0,12.88-5.4q5.12-5.4,5.12-14.17,0-8.56-5.12-13.89A17.2,17.2,0,0,0,1063.6,143.72Z" style="fill:#fff"/><path d="M1116.08,106h16.49v24.22h9.78v14.19h-9.78V195.9h-16.49V144.38h-8.45V130.19h8.45Z" style="fill:#fff"/><path d="M1226.48,130.19h14.14v8.28a17.58,17.58,0,0,1,6.1-7.43,14.7,14.7,0,0,1,8.33-2.54,15.36,15.36,0,0,1,6.7,1.69l-5.13,14.19a11.41,11.41,0,0,0-4.77-1.45q-3.81,0-6.43,4.72t-2.63,18.48l.06,3.2V195.9h-16.37Z" style="fill:#fff"/><circle cx="1181.37" cy="163.09" r="9.09"/><path d="M1211.57,173.41l-12,13.42h-15.26a1.32,1.32,0,0,1-.09.62v0a2,2,0,0,1-.07.43,3.59,3.59,0,0,1-3.25,3.23,3.63,3.63,0,0,1-3.26-3.37,4.23,4.23,0,0,1-.06-.73l-3.32,0h-.34a1.23,1.23,0,0,1-.45-.24h0a2,2,0,0,1-.74-1.36,2,2,0,0,1,1.17-2.11l3.8.06a4.26,4.26,0,0,1,.94-2.67,2.89,2.89,0,0,1,2.14-1.08,2.84,2.84,0,0,1,2.32,1.2,4.3,4.3,0,0,1,.82,2.19l12.61.05h.13l1.25-1.15.78-.7,5.53-5,8.91-9.77,3.21-3.53a35,35,0,1,0-.52,6.2l-1.9,1.75Zm-30.21,3a13.3,13.3,0,0,1-2.57-26.34,13,13,0,0,1,1.89-.24h.68a13.3,13.3,0,0,1,13.3,13.29c0,.23,0,.46,0,.69a13,13,0,0,1-.24,1.89A13.29,13.29,0,0,1,1181.36,176.38Z" style="fill:#c2185b"/><circle cx="1181.32" cy="163.14" r="35.55" style="fill:none;stroke:#000;stroke-miterlimit:10;stroke-width:0.75px"/><path d="M1172.67,185.43a2,2,0,0,0,.75,1.35v0a7.92,7.92,0,0,0,.79.24l3.32,0a4.4,4.4,0,0,0,.06.73,3.26,3.26,0,1,0,6.51.13,1.93,1.93,0,0,0,.07-.43h0a1.36,1.36,0,0,0,.09-.63h15.26l12-13.41a31.94,31.94,0,1,1,1.71-10.33c0,1.11-.06,2.2-.16,3.29l-8.91,9.76-5.53,5-.78.7-1.25,1.15h-.13l-12.61,0a4.39,4.39,0,0,0-.82-2.19,2.83,2.83,0,0,0-2.32-1.21,2.92,2.92,0,0,0-2.15,1.09,4.26,4.26,0,0,0-.93,2.66c-1.27,0-2.53,0-3.8-.06A2,2,0,0,0,1172.67,185.43Z" style="fill:none;stroke:#fff;stroke-miterlimit:10;stroke-width:0.45px"/><path d="M1177.54,187.08a4.4,4.4,0,0,0,.06.73,23.69,23.69,0,0,1-3.38-.77Z" style="fill:none;stroke:#fff;stroke-miterlimit:10;stroke-width:0.15px"/><path d="M1184.27,186.87h4.85a23,23,0,0,1-5,1.07,1.93,1.93,0,0,0,.07-.43h0A1.36,1.36,0,0,0,1184.27,186.87Z" style="fill:none;stroke:#fff;stroke-miterlimit:10;stroke-width:0.15px"/><path d="M1206.47,163a24.88,24.88,0,0,1-7.83,18.17l-.78.7a16.48,16.48,0,0,1-1.38,1.15l-12.61,0a4.39,4.39,0,0,0-.82-2.19,2.83,2.83,0,0,0-2.32-1.21,2.92,2.92,0,0,0-2.15,1.09,4.26,4.26,0,0,0-.93,2.66c-1.27,0-2.53,0-3.8-.06a2,2,0,0,0-1.18,2.12,2,2,0,0,0,.75,1.35,25,25,0,1,1,33-23.74Z" style="fill:none;stroke:#fff;stroke-miterlimit:10;stroke-width:0.30000000000000004px"/><path d="M1199.19,163a17.87,17.87,0,0,1-16.14,17.79,2.83,2.83,0,0,0-2.32-1.21,2.92,2.92,0,0,0-2.15,1.09A17.88,17.88,0,1,1,1199.19,163Z" style="fill:none;stroke:#fff;stroke-miterlimit:10;stroke-width:0.2px"/><circle cx="1181.41" cy="163.05" r="13.23" style="fill:none;stroke:#000;stroke-miterlimit:10;stroke-width:0.25px"/><line x1="738.55" y1="195.9" x2="768.4" y2="107.06" style="fill:none;stroke:#08263c;stroke-miterlimit:10;stroke-width:3px"/><line x1="695.19" y1="195.9" x2="710.56" y2="107.06" style="fill:none;stroke:#08263c;stroke-miterlimit:10;stroke-width:3px"/></g><g id="Livello_3" data-name="Livello 3"><line x1="2" y1="135.3" x2="2" y2="174.94" style="fill:none;stroke:#c2185b;stroke-miterlimit:10;stroke-width:4px"/><line x1="21.82" y1="80.7" x2="21.82" y2="229.55" style="fill:none;stroke:#c2185b;stroke-miterlimit:10;stroke-width:4px"/><line x1="44.47" y1="98.49" x2="44.47" y2="211.75" style="fill:none;stroke:#c2185b;stroke-miterlimit:10;stroke-width:4px"/><line x1="64.7" y1="140.76" x2="64.7" y2="169.48" style="fill:none;stroke:#c2185b;stroke-miterlimit:10;stroke-width:4px"/><line x1="86.54" y1="148.65" x2="86.54" y2="161.6" style="fill:none;stroke:#c2185b;stroke-miterlimit:10;stroke-width:4px"/><line x1="106.76" y1="89.8" x2="106.76" y2="220.45" style="fill:none;stroke:#c2185b;stroke-miterlimit:10;stroke-width:4px"/><line x1="128.2" y1="107.8" x2="128.2" y2="202.45" style="fill:none;stroke:#c2185b;stroke-miterlimit:10;stroke-width:4px"/><line x1="150.04" y1="131.87" x2="150.04" y2="178.38" style="fill:none;stroke:#c2185b;stroke-miterlimit:10;stroke-width:4px"/><line x1="170.67" y1="96.67" x2="170.67" y2="213.57" style="fill:none;stroke:#c2185b;stroke-miterlimit:10;stroke-width:4px"/><line x1="192.11" y1="124.79" x2="192.11" y2="185.46" style="fill:none;stroke:#c2185b;stroke-miterlimit:10;stroke-width:4px"/><line x1="211.53" y1="80.49" x2="211.53" y2="229.75" style="fill:none;stroke:#c2185b;stroke-miterlimit:10;stroke-width:4px"/><line x1="232.97" y1="65.12" x2="232.97" y2="245.12" style="fill:none;stroke:#c2185b;stroke-miterlimit:10;stroke-width:4px"/><line x1="253.6" y1="81.91" x2="253.6" y2="228.34" style="fill:none;stroke:#c2185b;stroke-miterlimit:10;stroke-width:4px"/><line x1="276.65" y1="117.1" x2="276.65" y2="193.15" style="fill:none;stroke:#c2185b;stroke-miterlimit:10;stroke-width:4px"/><line x1="296.47" y1="99.3" x2="296.47" y2="210.94" style="fill:none;stroke:#c2185b;stroke-miterlimit:10;stroke-width:4px"/><line x1="315.89" y1="130.04" x2="315.89" y2="180.2" style="fill:none;stroke:#c2185b;stroke-miterlimit:10;stroke-width:4px"/><line x1="338.13" y1="144" x2="338.13" y2="166.25" style="fill:none;stroke:#c2185b;stroke-miterlimit:10;stroke-width:4px"/><line x1="358.76" y1="151.69" x2="358.76" y2="158.56" style="fill:none;stroke:#c2185b;stroke-miterlimit:10;stroke-width:4px"/><line x1="381.42" y1="112.04" x2="381.42" y2="198.2" style="fill:none;stroke:#c2185b;stroke-miterlimit:10;stroke-width:4px"/><line x1="402.04" y1="47.33" x2="402.04" y2="262.92" style="fill:none;stroke:#c2185b;stroke-miterlimit:10;stroke-width:4px"/><line x1="423.89" x2="423.89" y2="310.25" style="fill:none;stroke:#c2185b;stroke-miterlimit:10;stroke-width:4px"/><line x1="442.9" y1="33.57" x2="442.9" y2="276.67" style="fill:none;stroke:#c2185b;stroke-miterlimit:10;stroke-width:4px"/><line x1="464.34" y1="60.67" x2="464.34" y2="249.57" style="fill:none;stroke:#c2185b;stroke-miterlimit:10;stroke-width:4px"/><line x1="487.8" y1="101.73" x2="487.8" y2="208.52" style="fill:none;stroke:#c2185b;stroke-miterlimit:10;stroke-width:4px"/><line x1="507.21" y1="76.25" x2="507.21" y2="234" style="fill:none;stroke:#c2185b;stroke-miterlimit:10;stroke-width:4px"/><line x1="526.22" y1="118.72" x2="526.22" y2="191.53" style="fill:none;stroke:#c2185b;stroke-miterlimit:10;stroke-width:4px"/><line x1="549.28" y1="137.53" x2="549.28" y2="172.72" style="fill:none;stroke:#c2185b;stroke-miterlimit:10;stroke-width:4px"/><line x1="572.74" y1="73.01" x2="572.74" y2="237.24" style="fill:none;stroke:#c2185b;stroke-miterlimit:10;stroke-width:4px"/><line x1="590.54" y1="112.04" x2="590.54" y2="198.2" style="fill:none;stroke:#c2185b;stroke-miterlimit:10;stroke-width:4px"/><line x1="613.6" y1="128.02" x2="613.6" y2="182.22" style="fill:none;stroke:#c2185b;stroke-miterlimit:10;stroke-width:4px"/><line x1="633.42" y1="144.4" x2="633.42" y2="165.84" style="fill:none;stroke:#c2185b;stroke-miterlimit:10;stroke-width:4px"/><line x1="1289.51" y1="143.72" x2="1289.51" y2="176.38" style="fill:none;stroke:#c2185b;stroke-miterlimit:10;stroke-width:4px"/><line x1="1309.33" y1="99.3" x2="1309.33" y2="210.94" style="fill:none;stroke:#c2185b;stroke-miterlimit:10;stroke-width:4px"/><line x1="1328.74" y1="130.04" x2="1328.74" y2="180.2" style="fill:none;stroke:#c2185b;stroke-miterlimit:10;stroke-width:4px"/><line x1="1350.99" y1="144" x2="1350.99" y2="166.25" style="fill:none;stroke:#c2185b;stroke-miterlimit:10;stroke-width:4px"/><line x1="1371.62" y1="151.69" x2="1371.62" y2="158.56" style="fill:none;stroke:#c2185b;stroke-miterlimit:10;stroke-width:4px"/><line x1="1394.27" y1="112.04" x2="1394.27" y2="198.2" style="fill:none;stroke:#c2185b;stroke-miterlimit:10;stroke-width:4px"/><line x1="1414.9" y1="47.33" x2="1414.9" y2="262.92" style="fill:none;stroke:#c2185b;stroke-miterlimit:10;stroke-width:4px"/><line x1="1436.74" x2="1436.74" y2="310.25" style="fill:none;stroke:#c2185b;stroke-miterlimit:10;stroke-width:4px"/><line x1="1455.75" y1="33.57" x2="1455.75" y2="276.67" style="fill:none;stroke:#c2185b;stroke-miterlimit:10;stroke-width:4px"/><line x1="1477.19" y1="60.67" x2="1477.19" y2="249.57" style="fill:none;stroke:#c2185b;stroke-miterlimit:10;stroke-width:4px"/><line x1="1500.65" y1="101.73" x2="1500.65" y2="208.52" style="fill:none;stroke:#c2185b;stroke-miterlimit:10;stroke-width:4px"/><line x1="1520.07" y1="76.25" x2="1520.07" y2="234" style="fill:none;stroke:#c2185b;stroke-miterlimit:10;stroke-width:4px"/><line x1="1539.08" y1="118.72" x2="1539.08" y2="191.53" style="fill:none;stroke:#c2185b;stroke-miterlimit:10;stroke-width:4px"/><line x1="1562.13" y1="137.53" x2="1562.13" y2="172.72" style="fill:none;stroke:#c2185b;stroke-miterlimit:10;stroke-width:4px"/><line x1="1585.6" y1="73.01" x2="1585.6" y2="237.24" style="fill:none;stroke:#c2185b;stroke-miterlimit:10;stroke-width:4px"/><line x1="1603.39" y1="112.04" x2="1603.39" y2="198.2" style="fill:none;stroke:#c2185b;stroke-miterlimit:10;stroke-width:4px"/><line x1="1626.45" y1="128.02" x2="1626.45" y2="182.22" style="fill:none;stroke:#c2185b;stroke-miterlimit:10;stroke-width:4px"/><line x1="1646.27" y1="144.4" x2="1646.27" y2="165.84" style="fill:none;stroke:#c2185b;stroke-miterlimit:10;stroke-width:4px"/><line x1="1668.11" y1="72.81" x2="1668.11" y2="237.44" style="fill:none;stroke:#c2185b;stroke-miterlimit:10;stroke-width:4px"/><line x1="1687.53" y1="104.16" x2="1687.53" y2="206.09" style="fill:none;stroke:#c2185b;stroke-miterlimit:10;stroke-width:4px"/><line x1="1708.16" y1="31.75" x2="1708.16" y2="278.49" style="fill:none;stroke:#c2185b;stroke-miterlimit:10;stroke-width:4px"/><line x1="1731.21" y1="60.07" x2="1731.21" y2="250.18" style="fill:none;stroke:#c2185b;stroke-miterlimit:10;stroke-width:4px"/><line x1="1751.84" y1="98.09" x2="1751.84" y2="212.16" style="fill:none;stroke:#c2185b;stroke-miterlimit:10;stroke-width:4px"/><line x1="1772.07" y1="138.44" x2="1772.07" y2="171.81" style="fill:none;stroke:#c2185b;stroke-miterlimit:10;stroke-width:4px"/><line x1="1794.72" y1="147.64" x2="1794.72" y2="162.61" style="fill:none;stroke:#c2185b;stroke-miterlimit:10;stroke-width:4px"/><line x1="1812.92" y1="107.39" x2="1812.92" y2="202.85" style="fill:none;stroke:#c2185b;stroke-miterlimit:10;stroke-width:4px"/><line x1="1835.98" y1="115.89" x2="1835.98" y2="194.36" style="fill:none;stroke:#c2185b;stroke-miterlimit:10;stroke-width:4px"/><line x1="1860.65" y1="137.53" x2="1860.65" y2="172.72" style="fill:none;stroke:#c2185b;stroke-miterlimit:10;stroke-width:4px"/><line x1="1877.64" y1="143.39" x2="1877.64" y2="166.85" style="fill:none;stroke:#c2185b;stroke-miterlimit:10;stroke-width:4px"/><line x1="1897.06" y1="95.26" x2="1897.06" y2="214.99" style="fill:none;stroke:#c2185b;stroke-miterlimit:10;stroke-width:4px"/></g></g></svg>