<svg xmlns="http://www.w3.org/2000/svg" viewBox="0 0 583.05 95.92"><g id="Livello_2" data-name="Livello 2"><g id="Livello_2-2" data-name="Livello 2"><path d="M15.38,3.93H31.86l20.59,62,20.78-62H89.7l14.9,88.84H88.25L78.72,36.66,59.85,92.77H45L26.24,36.66,16.49,92.77H0Z"/><path d="M116.2,27.06h16.67V58.7q0,9.24,1.27,12.84a11.17,11.17,0,0,0,4.09,5.58,11.65,11.65,0,0,0,6.93,2,12.11,12.11,0,0,0,7-2,11.48,11.48,0,0,0,4.27-5.76q1-2.85,1-12.14V27.06h16.49V54.9q0,17.21-2.72,23.55a25.71,25.71,0,0,1-9.79,11.87Q155,94.46,145,94.46q-10.81,0-17.49-4.83a25.5,25.5,0,0,1-9.39-13.47q-1.93-6-1.93-21.74Z"/><path d="M230.71,36.24,220.5,46.44q-6.23-6.15-11.29-6.16a7.14,7.14,0,0,0-4.35,1.18,3.54,3.54,0,0,0-1.57,2.93,3.59,3.59,0,0,0,1,2.45,18.61,18.61,0,0,0,4.92,3l6,3q9.54,4.71,13.1,9.6A18.94,18.94,0,0,1,231.92,74a19,19,0,0,1-6.44,14.62q-6.42,5.87-17.24,5.86-14.37,0-23-11.24l10.15-11a23.29,23.29,0,0,0,6.79,5.47,15,15,0,0,0,6.92,2.08,8.23,8.23,0,0,0,5.25-1.57,4.54,4.54,0,0,0,2-3.62q0-3.81-7.18-7.43l-5.56-2.78q-15.94-8-15.94-20.11a17.46,17.46,0,0,1,6-13.32q6-5.52,15.37-5.52a26.6,26.6,0,0,1,21.62,10.87Z"/><path d="M251.33,0a10.11,10.11,0,0,1,7.44,3.14,10.41,10.41,0,0,1,3.1,7.61,10.29,10.29,0,0,1-3.07,7.52,10,10,0,0,1-7.35,3.11A10.09,10.09,0,0,1,244,18.21a10.59,10.59,0,0,1-3.11-7.7,10.13,10.13,0,0,1,3.08-7.43A10.07,10.07,0,0,1,251.33,0Zm-8.24,27.06h16.49V92.77H243.09Z"/><path d="M338.88,40.34l-13.73,7.55a23.26,23.26,0,0,0-7.65-5.61,22.91,22.91,0,0,0-8.86-1.57q-9.25,0-15,5.51A18.81,18.81,0,0,0,288,60.36a18.16,18.16,0,0,0,5.51,13.69q5.49,5.31,14.45,5.31,11.06,0,17.23-7.55l13,8.9q-10.57,13.76-29.83,13.75-17.34,0-27.15-10.27a34.47,34.47,0,0,1-5-41.61A33.59,33.59,0,0,1,289.44,30a39.76,39.76,0,0,1,19.12-4.59,38.69,38.69,0,0,1,17.57,3.89A33.42,33.42,0,0,1,338.88,40.34Z"/><path d="M402.23,27.06h16.49V92.77H402.23v-7a32.26,32.26,0,0,1-9.68,6.61,27.11,27.11,0,0,1-10.53,2q-12.72,0-22-9.88T350.71,60q0-15.21,9-24.94a28.64,28.64,0,0,1,21.84-9.72,27.76,27.76,0,0,1,11.1,2.23,30.45,30.45,0,0,1,9.59,6.7ZM384.9,40.59A16.66,16.66,0,0,0,372.2,46q-5.06,5.4-5.06,13.86t5.15,14A16.65,16.65,0,0,0,385,79.36,17,17,0,0,0,397.84,74Q403,68.55,403,59.79q0-8.58-5.11-13.89A17.21,17.21,0,0,0,384.9,40.59Z"/><path d="M437.38,2.84h16.49V27.06h9.78V41.25h-9.78V92.77H437.38V41.25h-8.46V27.06h8.46Z"/><path d="M547.78,27.06h14.13v8.27A17.71,17.71,0,0,1,568,27.9a14.74,14.74,0,0,1,8.34-2.53,15.36,15.36,0,0,1,6.7,1.69l-5.13,14.19a11.34,11.34,0,0,0-4.77-1.45c-2.54,0-4.68,1.57-6.44,4.71s-2.62,9.3-2.62,18.48l.06,3.2V92.77H547.78Z"/><circle cx="502.62" cy="60" r="6"/><path d="M532.82,70.32l-12,13.42H505.57a1.61,1.61,0,0,1-.09.62v0a1.93,1.93,0,0,1-.08.43A3.58,3.58,0,0,1,502.16,88a3.63,3.63,0,0,1-3.26-3.36,3.54,3.54,0,0,1-.06-.73l-3.32,0h-.34a1.09,1.09,0,0,1-.45-.24h0a1.92,1.92,0,0,1-.75-1.36,2,2,0,0,1,1.18-2.11c1.26,0,2.53,0,3.79.06a4.38,4.38,0,0,1,.94-2.67A2.91,2.91,0,0,1,502,76.49a2.85,2.85,0,0,1,2.32,1.2,4.39,4.39,0,0,1,.82,2.19l12.6.05h.14l1.25-1.15.77-.7,5.54-5,8.9-9.77,3.22-3.52a35,35,0,1,0-.52,6.19l-1.91,1.75Zm-30.2,3A13.3,13.3,0,0,1,500.05,47a13,13,0,0,1,1.89-.23c.22,0,.46,0,.68,0A13.29,13.29,0,0,1,515.91,60c0,.23,0,.47,0,.69a13,13,0,0,1-.24,1.89A13.3,13.3,0,0,1,502.62,73.29Z" style="fill:#c2185b"/><circle cx="502.61" cy="60" r="35.55" style="fill:none;stroke:#000;stroke-miterlimit:10;stroke-width:0.75px"/><path d="M494,82.29a1.92,1.92,0,0,0,.75,1.36h0a7.92,7.92,0,0,0,.79.24l3.32,0a3.54,3.54,0,0,0,.06.73A3.63,3.63,0,0,0,502.16,88a3.58,3.58,0,0,0,3.24-3.23,1.93,1.93,0,0,0,.08-.43v0a1.61,1.61,0,0,0,.09-.62h15.26l12-13.42A31.91,31.91,0,1,1,534.54,60a32.34,32.34,0,0,1-.17,3.29l-8.9,9.77-5.54,5-.77.7-1.25,1.15h-.14l-12.6-.05a4.39,4.39,0,0,0-.82-2.19,2.85,2.85,0,0,0-2.32-1.2,2.91,2.91,0,0,0-2.15,1.08,4.38,4.38,0,0,0-.94,2.67c-1.26,0-2.53,0-3.79-.06A2,2,0,0,0,494,82.29Z" style="fill:none;stroke:#fff;stroke-miterlimit:10;stroke-width:0.45px"/><path d="M498.84,84a3.54,3.54,0,0,0,.06.73,23.71,23.71,0,0,1-3.38-.78Z" style="fill:none;stroke:#fff;stroke-miterlimit:10;stroke-width:0.15px"/><path d="M505.57,83.74h4.85a23.71,23.71,0,0,1-5,1.07,1.93,1.93,0,0,0,.08-.43v0A1.61,1.61,0,0,0,505.57,83.74Z" style="fill:none;stroke:#fff;stroke-miterlimit:10;stroke-width:0.15px"/><path d="M527.76,59.9a24.85,24.85,0,0,1-7.83,18.18l-.77.7a16.61,16.61,0,0,1-1.39,1.15l-12.6-.05a4.39,4.39,0,0,0-.82-2.19,2.85,2.85,0,0,0-2.32-1.2,2.91,2.91,0,0,0-2.15,1.08,4.38,4.38,0,0,0-.94,2.67c-1.26,0-2.53,0-3.79-.06A2,2,0,0,0,494,82.29a1.92,1.92,0,0,0,.75,1.36,25,25,0,1,1,33-23.75Z" style="fill:none;stroke:#fff;stroke-miterlimit:10;stroke-width:0.30000000000000004px"/><path d="M520.48,59.9a17.85,17.85,0,0,1-16.13,17.79,2.85,2.85,0,0,0-2.32-1.2,2.91,2.91,0,0,0-2.15,1.08,17.87,17.87,0,1,1,20.6-17.67Z" style="fill:none;stroke:#fff;stroke-miterlimit:10;stroke-width:0.2px"/><circle cx="502.71" cy="59.91" r="13.23" style="fill:none;stroke:#000;stroke-miterlimit:10;stroke-width:0.25px"/><line x1="59.85" y1="92.77" x2="89.7" y2="3.93" style="fill:none;stroke:#fff;stroke-miterlimit:10"/><line x1="16.49" y1="92.77" x2="31.86" y2="3.93" style="fill:none;stroke:#fff;stroke-miterlimit:10"/></g></g></svg>