<svg xmlns="http://www.w3.org/2000/svg" viewBox="0 0 127.96 126.43"><g id="Livello_2" data-name="Livello 2"><g id="Livello_2-2" data-name="Livello 2"><path d="M65.75,6,20.89,89.26A53.74,53.74,0,0,1,65.75,6Z" style="fill:none;stroke:#000;stroke-miterlimit:10;stroke-width:3px"/><path d="M104.15,32.47A23.28,23.28,0,0,1,80.87,55.76H65.75V6A53.63,53.63,0,0,1,97.91,16.62,23.11,23.11,0,0,1,104.15,32.47Z" style="fill:none;stroke:#000;stroke-miterlimit:10;stroke-width:3px"/><path d="M119.49,59.69a53.76,53.76,0,0,1-53.74,53.73V55.76H80.87a23.28,23.28,0,0,0,17-39.14A53.7,53.7,0,0,1,119.49,59.69Z" style="fill:none;stroke:#000;stroke-miterlimit:10;stroke-width:3px"/><line x1="65.75" y1="125.6" x2="65.75" y2="113.42" style="fill:none;stroke:#000;stroke-miterlimit:10;stroke-width:3px"/><line x1="65.75" y1="55.76" x2="43.92" y2="55.76" style="fill:none;stroke:#000;stroke-miterlimit:10;stroke-width:3px"/><line x1="20.89" y1="89.26" x2="1.32" y2="125.6" style="fill:none;stroke:#000;stroke-miterlimit:10;stroke-width:3px"/><path d="M65.75,6V113.42A53.65,53.65,0,0,1,20.89,89.26Z" style="fill:none;stroke:#000;stroke-miterlimit:10;stroke-width:3px"/><line x1="80.87" y1="55.76" x2="126.71" y2="125.6" style="fill:none;stroke:#000;stroke-miterlimit:10;stroke-width:3px"/></g></g></svg>